<svg id="good" stroke="currentColor" fill="none" stroke-width="2" viewBox="0 0 24 24" aria-hidden="true" height="14" width="14" xmlns="http://www.w3.org/2000/svg">
    <path stroke-linecap="round" stroke-linejoin="round" d="M4.318 6.318a4.5 4.5 0 000 6.364L12 20.364l7.682-7.682a4.5 4.5 0 00-6.364-6.364L12 7.636l-1.318-1.318a4.5 4.5 0 00-6.364 0z"></path>
</svg>
<svg id="neutral" stroke="currentColor" fill="currentColor" stroke-width="0" viewBox="0 0 24 24" height="14" width="14" xmlns="http://www.w3.org/2000/svg">
    <path fill="none" d="M0 0h24v24H0V0z"></path><path d="M9 15.5h6v1H9v-1z"></path><circle cx="15.5" cy="9.5" r="1.5"></circle><circle cx="8.5" cy="9.5" r="1.5"></circle><path d="M11.99 2C6.47 2 2 6.48 2 12s4.47 10 9.99 10C17.52 22 22 17.52 22 12S17.52 2 11.99 2zM12 20c-4.42 0-8-3.58-8-8s3.58-8 8-8 8 3.58 8 8-3.58 8-8 8z"></path>
</svg>
<svg id="bad" stroke="currentColor" fill="currentColor" stroke-width="0" viewBox="0 0 24 24" height="14" width="14" xmlns="http://www.w3.org/2000/svg">
    <path fill="none" d="M24 24H0V0h24v24z"></path>
    <path d="M10.89 18.28l.57-2.89c.12-.59-.04-1.2-.42-1.66-.38-.46-.94-.73-1.54-.73H4v-1.08L6.57 6h8.09c.18 0 .34.16.34.34v7.84l-4.11 4.1M10 22l6.41-6.41c.38-.38.59-.89.59-1.42V6.34C17 5.05 15.95 4 14.66 4h-8.1c-.71 0-1.36.37-1.72.97l-2.67 6.15c-.11.25-.17.52-.17.8V13c0 1.1.9 2 2 2h5.5l-.92 4.65c-.05.22-.02.46.08.66.23.45.52.86.88 1.22L10 22zm10-7h2V4h-2c-.55 0-1 .45-1 1v9c0 .55.45 1 1 1z"></path>
</svg>